<svg xmlns="http://www.w3.org/2000/svg" width="583" height="170" fill="none"><g clip-path="url(#a)"><path fill="#FFBADB" d="M396.737 112.899c1.399.453 2.836.418 4.255.406 1.408-.012 2.789.059 4.126.518 1.653.571 3.353.905 5.077 1.16.497.074 1.408.103 1.295.686-.151.785-.937.341-1.493.246-.382-.065-.754-.293-1.198-.11.323.432.828.45 1.254.616.275.106.603.139.828.308.429.322.955.71.701 1.331-.222.539-.81.518-1.31.447-.639-.092-1.284-.192-1.902-.379-4.009-1.207-8.09-2.13-12.23-2.669-2.813-.364-5.577-.985-8.396-1.284-1.165-.124-1.546.068-2.076 1.213-.626 1.356-1.165 2.752-2.019 3.995-.166.24-.234.592-.621.521-.379-.068-.601-.343-.683-.71-.142-.639-.243-1.279.168-1.873 1.772-2.566 2.709-5.537 4.046-8.316.245-.509.402-.962.05-1.527-.34-.541-.08-.879.541-1.08 2.978-.968 5.962-1.846 9.075-2.335 3.723-.583 7.449-.198 11.173-.293 1.156-.029 2.244.379 2.986 1.415.793 1.11.808 1.888-.074 2.962-.706.861-1.579 1.527-2.637 1.894-3.558 1.234-7.062 2.687-10.933 2.85l-.003.008Zm11.53-5.956-.08-.379c-2.049-.269-4.096-.568-6.151-.796a18.159 18.159 0 0 0-2.818-.08c-3.194.142-6.272.899-9.309 1.852-.364.116-.852.119-1.032.521-.535 1.187-1.21 2.323-1.496 3.658 7.322-.429 14.351-1.554 20.883-4.773l.003-.003ZM208.66 130.282c-.807.601-1.017 1.255-1.259 1.903-1.133 3.045-2.591 5.921-4.495 8.561-.728 1.009-1.571 1.923-2.177 3.03-.429.784-.704.784-1.419.281-1.242-.87-1.496-2.054-.565-3.279 1.745-2.299 3.123-4.859 5.039-7.031.674-.763 1.017-1.713 1.413-2.619.485-1.106 1.059-2.127 1.905-3.009.408-.426.716-.953 1.026-1.462.251-.414.512-.764 1.056-.583.529.177 1.041.402 1.047 1.095 0 .198-.009.399-.012.598-.033 1.769.266 3.435 1.141 5.027.739 1.35 1.579 2.619 2.316 3.951.641-.287.754-.814 1.014-1.219 1.416-2.217 2.72-4.504 4.143-6.721 1.428-2.228 3.531-3.773 5.329-5.619.479-.491 2.197-.16 2.552.411.254.411-.039.622-.275.882-1.479 1.616-2.961 3.234-4.262 5.001-.674.92-1.336 1.858-1.898 2.85-1.278 2.249-2.954 4.252-4.072 6.599-.065.136-.104.302-.207.393-.45.403-.006 1.527-.742 1.421-.814-.119-1.813-.252-2.402-1.012-1.555-2.007-3.063-4.04-3.439-6.67-.127-.882-.709-1.643-.751-2.776l-.006-.003ZM279.694 126.488a28.126 28.126 0 0 0 3.658-2.882c.399-.373.786-.769 1.233-1.077 2.741-1.894 5.453-3.835 8.262-5.623 1.668-1.062 3.475-1.923 5.456-2.308.878-.172 1.916.207 2.354.897.39.609.287.997-.396 1.275-.737.299-1.473.636-2.245.799-2.519.53-4.601 1.924-6.541 3.462-1.996 1.581-4.143 2.93-6.184 4.433-1.721 1.27-3.518 2.43-5.056 3.939-.725.71-1.08.622-1.588-.296-.831-1.5-.751-3.169-.822-4.8-.027-.63.015-1.257-.163-2.133-.943.994-1.819 1.737-2.457 2.642-.689.977-1.547 1.814-2.156 2.856-.541.923-1.523 1.414-2.351 2.048-1.224.938-2.499 1.808-3.711 2.758-.423.331-.728.278-1.014-.074-.624-.761-1.092-1.634-.663-2.61 1.363-3.116 1.943-6.475 3.067-9.662.145-.411.121-.947.801-.808.606.124.816.574.76 1.107-.062.589-.242 1.163-.364 1.746-.423 2.047-.825 4.098-1.659 6.031-.05.118-.014.275-.026.6 1.949-1.334 3.634-2.752 4.885-4.589 1.224-1.797 2.925-3.111 4.4-4.652.506-.53 1.082-.347 1.659-.119.562.225.686.657.636 1.205-.18 1.894.378 3.746.225 5.835ZM427.772 109.372c4.56.657 8.676 1.918 12.973 2.119 1.224.056 2.25.766 3.389 1.113.127.038.337.207.322.251-.396 1.178.536 1.089 1.189 1.281.248.074.45.237.384.542-.094.432-.408.864-.798.719-1.662-.615-3.448.145-5.125-.624-1.434-.657-3.046-.876-4.586-1.261-1.825-.456-3.623-1.027-5.474-1.409-1.801-.369-3.631-.556-5.4-1.115-1.032-.326-1.774.198-2.146 1.263-.317.906-.391 1.847-.37 2.797.006.299.056.595.065.894.021.89-.257 1.426-.769 1.393-.751-.044-.955-.636-1.047-1.248-.254-1.705-.074-3.409.379-5.034.491-1.764.482-3.539.597-5.324.042-.645.101-1.29.201-1.929.051-.314.045-.755.562-.713.506.038.846.296.89.825.021.243-.026.498-.059.743-.195 1.388.041 2.767-.038 4.149.582.056.946-.166 1.324-.426 2.671-1.841 5.527-3.314 8.541-4.528 1.416-.571 2.723-1.426 4.143-2.03 1.644-.701 3.276-1.432 4.935-2.104 1.109-.45 1.839-.272 2.428.462.582.728.526 1.258-.308 1.678-.884.444-1.807.828-2.747 1.136-1.993.648-3.868 1.536-5.754 2.444-1.467.708-2.981 1.353-4.486 1.995-1.059.453-1.97 1.104-3.212 1.926l-.003.015ZM239.163 128.066c2.014-.421 4.007-.805 6.015-1.128 1.677-.269 3.362-.367 5.045-.536.665-.065 1.39.607 1.399 1.226.008.689-.468.976-1.05 1.041-3.555.403-7.077 1.14-10.675 1.101-.497-.006-.994.053-1.491.077-.322.015-.577.139-.736.426-.624 1.11-1.245 2.222-1.993 3.557 3.468-.917 6.798-1.121 10.036-1.855 1.644-.373 3.333-.536 4.989-.861 1.481-.293 2.797.189 4.116.725.441.18.828.423.781.961-.056.607-.55.634-1.003.631-2.445-.015-4.876.23-7.289.547-4.125.542-8.342.63-12.284 2.205-.576.23-1.186.5-1.603-.151-.428-.666-.763-1.397-.36-2.234 1.014-2.113 2.318-4.055 3.578-6.017.736-1.142 1.41-2.293 1.641-3.642.071-.421.237-.548.651-.622 1.469-.26 2.957-.429 4.432-.603 3.064-.364 6.051-1.211 9.138-1.412.556-.036 1.091.03 1.632.089.574.062.683.411.695.929.015.533-.236.666-.689.758-2.289.464-4.578.958-6.872 1.34-1.437.24-2.931.524-4.421.432-2.257-.142-3.28.201-3.682 3.018v-.002ZM363.212 121.36c-2.898-.124-5.799.311-8.706-.636-2.454-.799-3.835-4.173-1.576-6.336 2.002-1.918 4.152-3.542 6.793-4.445.047-.015.097-.026.142-.05 2.705-1.364 5.627-1.379 8.552-1.352.298 0 .597-.018.893-.045.958-.083 1.759.009 2.558.787.795.776 1.925 1.205 2.906 1.788.213.127.438.242.633.393 1.242.953 1.36 2.098.388 3.344-1.378 1.764-3.138 3.057-5.155 3.942-2.084.914-4.146 1.917-6.393 2.415-.34.074-.683.127-1.038.192l.003.003Zm10.743-8.827c-1.792-.43-3.368-.959-5.104-.903-1.966.062-3.953.145-5.905-.302a1.79 1.79 0 0 0-1.029.077c-2.685.997-5.021 2.586-7.295 4.282-.352.263-.639.633-.897.994-.742 1.039-.514 1.587.755 1.865 2.259.494 4.557.364 6.825.233 2.685-.153 5.231-1.044 7.718-2.059 2.028-.826 3.67-2.092 4.926-4.187h.006ZM531.423 94.546c-1.846.273-3.363.539-4.894.705-.775.083-1.136.304-1.402 1.145-.846 2.637-1.875 5.214-2.836 7.812a3.65 3.65 0 0 1-.236.548c-.157.275-.406.488-.722.423-.234-.047-.402-.281-.476-.533a4.035 4.035 0 0 1-.124-1.627c.162-1.379.281-2.749.999-4.016.408-.72.568-1.586.799-2.397.215-.76.118-.888-.683-.831-2.032.147-4.061.33-6.089.488-.645.05-1.29.097-1.934.097-.784 0-1.183-.384-1.292-1.13-.107-.734.334-.962.934-1.074 1.316-.246 2.626-.545 3.951-.737 4.427-.642 8.874-1.16 13.28-1.909 1.704-.29 3.339-.358 5.015-.059.148.027.299.02.444.056 1.023.249 1.558.832 1.458 1.59-.074.556-.671.964-1.612 1.053-1.632.154-3.267.284-4.58.4v-.004ZM483.984 107.037c2.029-.174 4.058-.367 6.089-.518.94-.071 1.919 1.113 1.724 2.048-.109.521-.526.713-.994.74-2.729.166-5.455.349-8.188.456-1.685.065-3.377.026-5.065-.009-2.044-.042-3.892-.737-5.583-1.838-1.095-.71-1.512-2.252-1.041-3.749.55-1.758 1.594-3.155 3.122-4.22 1.429-.994 2.898-1.897 4.472-2.64 1.185-.562 2.374-1.053 3.634-.186.248.169.476.34.647.6.299.46.302.844-.221 1.11a7.106 7.106 0 0 1-1.097.453c-2.348.719-4.489 1.861-6.512 3.226-.991.665-1.884 1.47-2.336 2.627-.328.841-.246.974.594 1.338 2.168.938 4.436 1.033 6.728.728a23.7 23.7 0 0 1 4.024-.169l.003.003ZM544.594 89.418c1.875 1.18 3.672 2.145 5.136 3.575.518.503.879.6 1.538.293.988-.462 2.037-.796 2.96-1.397 2.783-1.811 5.932-2.77 9.022-3.853 1.088-.382 1.384-.16 1.718.956.308 1.02.071 1.465-.964 1.781-1.091.332-2.212.58-3.27.998-1.334.523-2.629 1.106-3.791 2.027-.955.757-2.079 1.32-3.274 1.746-1.697.6-2.921 1.722-3.474 3.557-.429 1.423-1.092 2.775-1.645 4.16-.207.521-.585.921-.91 1.359-.222.298-.468.553-.864.399-.429-.166-.538-.547-.532-.976.006-.364.151-.69.34-.977.615-.932.878-1.98 1.168-3.039a19.787 19.787 0 0 1 1.319-3.483c.405-.82.239-1.252-.485-1.696-.76-.467-1.411-1.139-2.2-1.536-1.565-.784-2.091-2-1.798-3.89l.006-.004ZM329.433 111.39c2.209.281 4.116 1.042 5.781 2.397.783.639 1.523.634 2.448.113 3.031-1.705 6.181-3.178 9.389-4.525.843-.352 1.718-.473 2.62-.462.432.006.615.184.53.66-.139.761-.361 1.356-1.174 1.723-4.022 1.814-8.014 3.699-12.027 5.536-.346.157-.597.349-.719.696-.621 1.749-1.632 3.287-2.608 4.847-.503.805-.642 1.832-1.668 2.299-.275.125-.34.69-.52 1.045-.11.216-.231.473-.532.435-.323-.042-.518-.258-.618-.568-.133-.415-.018-.782.183-1.143 1.138-2.038 2.108-4.169 3.392-6.128.192-.29.39-.577.562-.882.585-1.056.553-1.003-.55-1.607-1.39-.76-2.756-1.583-3.857-2.755-.402-.429-.813-.882-.626-1.684l-.006.003ZM499.332 105.132c-.039-.879.278-1.666.653-2.424.329-.666.683-1.329 1.106-1.938.941-1.35 1.76-2.755 2.384-4.282.242-.592.597-1.145.952-1.681.269-.409.408-1.107 1.198-.651.825.476 1.316 1.219.866 1.79-1.402 1.77-1.653 4.137-3.217 5.833-.686.743-1.109 1.761-1.514 2.713-.246.58-.713.941-1.018 1.444-.183.302-.464.598-.842.474-.343-.112-.488-.468-.533-.832-.017-.148-.026-.296-.038-.443l.003-.003Z"/><path fill="#000" d="M184.79 139.432c-.103.547-.494 1.018-1.055 1.036-.784.026-.97-.711-.994-1.305-.015-.441.21-.959.713-1.14.408-.145 1.33.823 1.333 1.409h.003ZM178.255 144.347c.172.124.479.234.586.444.177.355-.166.444-.429.485-.343.057-.509-.156-.547-.461-.027-.222.071-.4.393-.468h-.003ZM195.874 65.552c.357.047.357.358.372.613.015.269 0 .606-.396.574-.313-.027-.479-.27-.47-.583.009-.308.16-.527.494-.604ZM83.015 36.11c-.048.279-.104.498-.352.436-.308-.077-.352-.35-.287-.616.05-.204.248-.346.426-.24.13.078.162.314.21.42h.003ZM201.093 52.126c-.299.48-.219 1.086-1.1 1.104.269-.503.29-1.03 1.1-1.104ZM343.852 128.524c.026.062.056.127.079.19.122.337.82.432.45.949-.163.228-.571.231-.754.045-.467-.471-.24-.852.275-1.125l-.053-.059h.003Z"/><path fill="#000" d="M343.905 128.583c.044-.281.009-.618.154-.828.145-.204.352.053.488.186.121.119.467.148.272.394-.074.092-.403-.042-.61-.021-.127.015-.242.13-.36.204l.053.062.003.003ZM224.165 90.294c-5.643-1.444-11.202-1.746-16.761-2.039-1.683-.089-3.38.02-5.069.074-5.057.16-10.078.687-15.078 1.459-1.798.278-3.614.491-5.43.583-3.35.172-6.015-.843-7.756-4.06-1.325-2.447-2.795-4.824-3.966-7.357-1.517-3.281-1.215-6.43.852-9.383 2.076-2.965 4.237-5.86 6.967-8.277.29-.258.532-.574.766-.882 1.064-1.403 2.469-2.033 4.214-1.829.706.083 1.171-.009 1.088-.87-.027-.29.112-.556.44-.47 1.42.381 2.372-1.436 3.851-.802.159.068.307-.193.337-.4.1-.722.467-.68.922-.314.515.418.967.071 1.151-.278.908-1.725 2.646-1.985 4.231-2.43 1.704-.476 3.289-1.091 4.782-2.083 1.458-.967 3.336-.961 4.918-1.713.154-.074.381.003.573.02.485.042.225 1.001.908.764.53-.183.219-.976.612-1.124 1.313-.497 2.612-1.057 4.007-1.305.476-.083.66.34.964.553 1.139.79 2.751.61 3.726-.45.349-.378.636-.82.944-1.237.677-.911 1.484-1.63 2.67-1.76.973-.107 1.745-.767 2.762-.867 1.088-.11 2.123.6 2.933.408.787-.19 1.293-1.465 2.348-1.758 1.065-.293 2.064-.752 3.037-1.266.373-.199.997-.142.902-.802-.085-.613.402-.613.719-.705.535-.157.645.38.751.687 1.091 3.116 2.407 6.158 3.176 9.384.204.852-.104 1.195-1.215 1.24a67.775 67.775 0 0 0-5.637.452c-5.846.72-11.379 2.545-16.912 4.48-6.39 2.238-12.647 4.709-18.425 8.29-5.031 3.115-9.324 7.045-13.009 11.65-.804 1.006-1.425 2.154-2.126 3.225.381.566.86.278 1.266.213a171.96 171.96 0 0 1 17.056-1.84c5.702-.329 11.418-.515 17.093.414 2.481.405 5.021.48 7.428 1.308.612.21 1.245.361 1.866.553 3.3 1.024 5.917 2.764 7.18 6.224.845 2.314 1.937 4.542 3.022 6.758.985 2.007.615 3.812-.633 5.48-1.99 2.67-4.128 5.313-6.985 7.011-3.04 1.808-5.686 4.17-8.909 5.747-1.863.912-3.945 1.693-5.51 3.113-1.715 1.557-3.755 2.489-5.698 3.622-.163.095-.287.323-.45.347-3.042.455-4.976 3.11-7.824 3.941-.937 1.27-2.866 1.166-3.661 2.646-.08.148-.308.275-.485.305-2.688.452-4.708 2.284-7.068 3.409-3.853 1.834-7.573 3.924-11.337 5.912-5.157 2.729-10.4 5.347-15.176 8.756-1.588 1.131-2.144.829-3.238-.751-1.556-2.243-2.878-4.617-4.312-6.928-1.02-1.642-.937-2.178.725-3.074 7.366-3.989 14.561-8.301 22.199-11.784 2.304-1.05 4.489-2.35 6.76-3.471 4.717-2.329 9.424-4.682 13.969-7.327 8.653-5.034 17.264-10.136 25.287-16.158 1.192-.893 2.324-1.855 3.262-3.228l.006-.006Zm-48.018 40.151c-.086-.077-.175-.213-.255-.213-.091 0-.245.124-.254.21-.03.225.121.343.334.272.083-.03.124-.183.175-.269ZM79.15 157.551c.307-1.414.103-2.77-.343-4.089-.252-.743-.69-1.06-1.364-.495-1.957 1.64-4.47 2.013-6.647 3.158-.329.171-.654.024-.982-.065-.257-.068-.671-.225-.772-.113-1.132 1.288-2.797.761-4.12 1.353-.803.358-1.59.731-1.82 1.793-.125.583-.693.84-1.213 1.009-.21.068-.612.228-.6-.231.017-.814-.376-.938-.805-.438-.739.864-1.688 1.089-2.69 1.293-.518.107-.911.196-1.08.965-.175.79-1.162 1.057-1.869 1.267-3.495 1.035-7.014 1.976-10.53 2.941-.323.089-.669.163-.994.13-2.57-.263-5.021.429-7.517.844-1.999.331-4.051-.065-6.044-.409-1.923-.328-3.951-.5-5.67-1.524-4.816-2.867-9.633-5.767-12.659-10.901a10.33 10.33 0 0 0-1.505-1.98c-5.264-5.404-6.914-11.941-5.376-19.321 1.467-7.034 3.809-13.745 7.487-19.892 1.57-2.625 3.383-5.072 5.246-7.475a118.134 118.134 0 0 1 26.55-25.103c3.717-2.557 7.656-4.672 11.964-6.043 2.505-.798 4.85-2.112 7.39-2.846 3.702-1.069 7.452-1.98 11.101-3.211 4.365-1.47 8.81-2.595 13.26-3.708 4.332-1.083 3.9-1.385 5.296 2.808.748 2.25 1.712 4.415 2.271 6.739.462 1.917.302 2.44-1.452 2.968-2.398.719-4.802 1.4-7.295 1.734-3.022.402-5.92 1.385-8.818 2.314-5.151 1.651-10.377 3.054-15.451 4.954-3.498 1.31-6.896 2.828-10.028 4.956-3.613 2.456-7.271 4.877-10.601 7.715-4.051 3.453-8.466 6.519-11.778 10.854-.465.607-1.018 1.134-1.698 1.477-2.102 1.065-3.758 2.498-4.59 4.927-.395 1.163-1.664 1.776-2.534 2.634-.452.444-.925.757-.966 1.465-.012.201-.072.458-.204.583-2.198 2.104-2.505 5.217-3.77 7.812-1.201 2.456-1.808 5.179-2.177 7.993-.476 3.604-.678 7.205-.822 10.825-.012.281-.042.562-.03.843.136 2.802 1.162 4.821 3.815 6.131 6.056 2.995 12.349 3.291 18.828 2.599 5.207-.557 10.243-1.835 15.167-3.599 5.3-1.9 10.418-4.264 15.457-6.803 5.825-2.936 11.6-5.978 17.438-8.887 4.498-2.24 9.064-4.338 13.591-6.516a49.966 49.966 0 0 0 3.067-1.61c.872-.497 1.623-.322 2.123.489 1.795 2.9 3.575 5.812 5.267 8.777.632 1.107.408 1.506-.758 1.701-1.103.187-2.01.787-2.998 1.228a1233.698 1233.698 0 0 1-10.986 4.83c-1.5.648-2.655 1.923-4.264 2.388-.772.222-1.473.675-2.315.701-.323.009-.766.083-.94.308-1.036 1.341-2.713 1.104-3.999 1.811-.32.175-1.138.074-1 .367.406.852-.765 1.506-.144 2.214.366.417.287.917.44 1.364.509 1.488.317 1.71-1.543 2.006l.003-.009ZM82.825 35.685c.409.642 2.18.562 1.177 1.846-.251.323.281.749.728.802.52.06 1.144.187 1.12.716-.038.8.418 1.492.37 2.199-.035.509-.772.778-1.334.775-.606 0-1.307.048-1.593-.728-.175-.467-.302-.932-.125-1.435.293-.82.92-1.622-.337-2.329-.266-.15-.02-1.207-.009-1.846h.003Z"/><path fill="#000" d="M55.948 110.174c.006.403-.121.687-.538.746-.595.083-1.585-.542-1.562-1.039.03-.63.409-.953 1.07-.965.926-.017.737.817 1.027 1.258h.003ZM117.992 111.319c-.243-.08-.364-.254-.314-.464.092-.382.393-.566.769-.557.225.003.39.196.287.409-.148.307-.358.595-.742.612ZM73.392 77.188c-.026-.243.118-.388.31-.48.276-.133.565-.106.687.178.044.103-.14.385-.284.467-.249.142-.524.09-.713-.168v.003ZM40.967 72.672c-.222-.033-.532-.003-.506-.388.015-.204.128-.367.373-.379.305-.014.517.113.535.427.012.225-.148.337-.399.34h-.003ZM511.971 77.466c-3.159 1.39-6.512 1.482-9.83 1.87-7.635.89-15.333.8-22.962 1.752-1.47.183-2.83.035-3.892-1.317-.251-.32-.606-.538-.902-.823-1.413-1.346-2.764-2.734-4.524-3.61-1.751-.87-1.697-1.06-.94-2.953 1.496-3.747 3.081-7.449 4.509-11.225 3.33-8.815 6.308-17.793 9.389-26.721 1.041-3.019 2.05-6.052 3.099-9.067.302-.87.571-1.77 1.115-2.504.16-.216.503-.58.544-.547 1.712 1.4 1.015-.728 1.331-1.196.683-1.012.905-2.3 1.674-3.34.585-.794 1.073-1.759 1.611-2.646.612-1.006.453-1.317-.13-3.004-.304-.879.083-1.808.459-2.447.351-.598.399-1.134.337-1.808 3.096.414 5.355 2.586 7.922 3.977.724.394.949.991.588 1.959-.337.902.042 1.31.802.956 2.436-1.143 5.071-1.521 7.543-2.513.423-.168.825-.334 1.142-.751 1.75-2.297 4.276-2.755 6.633-3.696.198.639-.258 1.038.079 1.429-.768.302-1.729-.323-2.525.56.937.244 1.765.044 2.484-.601.807.494 1.458-.27 2.179-.4 1.896-.343 3.729-1.071 5.687-1.113.624-.014 1.431-.077.742-1.234-.245-.41.042-.66.42-.69 1.458-.114 2.733-.736 3.904-1.683.245-.198.588-.31.899-.34 5.458-.524 10.914-1.284 16.391-.14 1.517.317 3.04.637 4.53 1.078 1.899.562 3.608 1.52 4.962 3.214 1.642 2.047 3.561 3.793 5.181 5.87 2.748 3.522 3.108 7.473 1.857 11.737-.337 1.151-1.144 1.909-1.99 2.566-.624.485-1.378.648-1.913-.125-.541-.784-1.014-.438-1.482-.053-.724.598-1.378 1.3-2.102 1.897-4.424 3.649-9.294 6.419-14.295 8.925-1.106.553-2.439.37-3.436 1.299.177.834.787.79 1.23.68 2.546-.636 4.986.32 7.461.64 1.62.21 3.347.062 4.785 1.243 2.138-.66 4.066.654 6.112.837 2.514.225 4.631 1.705 6.884 2.723.861.387 1.532 1.308 2.097 2.21 1.428 2.29 2.691 4.702 3.702 7.238.586 1.468 1.041 3.117.284 4.768-.112.248-.133.556-.168.84-.586 4.427-2.828 6.703-6.926 7.02-.127.008-.281-.05-.385.008-1.428.832-2.945 1.196-4.556 1.178-.308-.003-.731.151-.793.515-.251 1.5-1.215 1.521-2.212 1.326-.878-.175-1.502.299-2.123.796-.6.482-1.216.754-1.976.666-1.253-.148-2.339-.018-3.595.707-1.313.754-3.12.512-4.714.568-.565.02-.985 0-1.564.331-1.222.702-2.688.764-3.975 1.427-.446.23-1.023-.027-1.467-.376-.482-.379-.325-.781-.133-1.308.169-.465-.328-.506-.618-.539-.354-.041-.73.154-.6.586.42 1.376-.467 1.255-1.144 1.273-3.073.077-6.119.612-9.182.663-1.124.017-2.094.097-3.167.53-1.177.473-2.529.502-3.806.538-2.055.056-4.108.012-6.107.648-.121.038-.319-.204-.482-.32.552-.657.394-1.155-.476-1.494-.097.636.331 1.042.533 1.542l-.009-.006ZM546.85 50.29c-1.881-.482-3.753-1.213-5.648-.062-.204.124-.524.142-.754.068-.527-.165-1.094-.364-.334-1.08.55-.52.307-.885-.29-1.003-1.233-.243-2.428.257-3.655.263-.166 0-.45.163-.476.302-.275 1.367-1.133.767-1.837.707-.319-.026-.789-.16-.937.018-.929 1.128-2.15.607-3.235.846-1.159.258-2.345-.1-3.46.21-3.096.862-6.254.77-9.401.897-.381.015-.878.062-1.126-.166-.97-.896-1.982-.428-2.691.128-.899.704-1.639.639-2.499.204-1.562-.787-3.3-.435-4.551.246-1.479.801-2.83 1.035-4.356.917-.447-.036-.884-.068-1.331.13-2.794 1.246-5.689 2.072-8.691 2.433-.239.03-.609.15-.665.334-.385 1.187-1.458 1.3-2.242 1.832-.822.56-1.366 1.284-1.632 2.302-.639 2.432-1.662 4.673-2.741 6.883-1.029 2.101-2.608 3.912-2.659 6.56.139.063.311.208.482.208 5.743.003 11.456-.663 17.19-.879 4.043-.154 8.085-.823 12.127-1.272 6.358-.708 12.728-1.234 19.103-1.726 3.797-.293 7.63-.509 11.365-1.251 6.996-1.394 13.73-3.868 20.241-7.043 1.18-.574 2.26-1.403 3.043-2.598 1.402-2.131.822-4.102-1.413-4.954-1.698-.648-3.371-1.34-5.016-2.184-2.229-1.145-4.731-1.35-7.112-1.983-.866-.23-1.756-.272-2.51.607-.66.77-1.505.666-2.304.11-.02-.273-.038-.545-.068-.815-.023-.218-.118-.45-.325-.41-.405.073-.266.396-.124.618.145.227.352.405.529.603h.003Zm-53.888-6.374c.577.527 1.121.337 1.594.252 4.326-.779 8.679-1.385 12.955-2.453 6.781-1.696 13.299-4.386 19.872-6.827 3.283-1.22 6.547-2.563 9.788-3.963 5.273-2.278 10.134-5.315 14.733-8.907 2.141-1.672 3.88-3.776 4.764-6.623.505-1.627.423-1.84-1.038-2.172-1.514-.343-3.028-.645-4.584-.775-2.59-.216-5.151.095-7.724.222-6.142.302-12.201 1.163-18.154 2.873-8.416 2.418-16.699 5.353-25.07 7.946-.926.287-1.355.95-1.585 1.932-.926 3.897-1.943 7.76-3.286 11.508-.828 2.315-1.526 4.685-2.268 6.987h.003Zm41.163-.663c-.059-.115-.097-.287-.186-.334-.068-.036-.266.06-.293.145-.071.219.009.426.24.44.074.007.16-.162.239-.25Zm14.215 6.297c.042-.284-.115-.387-.319-.381-.109.003-.284.089-.307.18-.06.22.041.435.233.512.225.092.322-.11.393-.308v-.003ZM535.802 4.524c.027-.465-.168-.527-.369-.494-.092.015-.21.163-.234.272-.047.22.038.441.257.459.213.02.337-.157.346-.24v.003ZM253.553 57.163c.393.387.352 1.672 1.206.488.166-.23.479-.465.476-.693-.041-3.444 2.591-5.063 4.814-6.859.864-.695 2.263-.6 3.203-1.45.299-.272.68-.42.926-.817.49-.784.644-2.027 2.064-1.746.088.018.263-.133.316-.245 1.434-2.927 4.483-2.915 7.003-3.877 1.466-.56 2.886-1.116 3.998-2.37 1.765-1.995 4.246-3.06 6.402-4.549 1.44-.994 3.022-1.743 4.297-3.027.833-.84 2.019-1.74 3.102-1.817 1.203-.086 2.182.16 2.498-1.34.015-.077.37-.077.565-.122.559-.124 1.216-.11 1.662-.405 2.413-1.59 5.205-2.37 7.727-3.717.967-.515 1.958-.87 3.04-.982a.494.494 0 0 1 .213.038c.772.302.994-1.228 1.736-.61.757.634 1.387 1.442 1.993 2.235 2.091 2.734 1.889 3.172-1.476 4.285-2.815.929-5.382 2.426-7.984 3.823-10.761 5.77-20.307 13.198-29.086 21.62-6.468 6.203-12.394 12.902-17.252 20.469-2.493 3.885-4.809 7.883-5.858 12.464-.373 1.619-.621 3.246-.621 4.918 0 1.042.422 1.542 1.381 1.874 3.51 1.222 7.132 1.772 10.823 1.834 6.295.107 12.52-.73 18.736-1.565 4.93-.66 9.841-1.477 14.665-2.684 6.978-1.746 13.907-3.696 20.862-5.543a39.838 39.838 0 0 1 3.374-.719c3.836-.669 7.588-1.68 11.329-2.734 1.266-.355 1.733.37 2.135 1.249 1.168 2.553 2.295 5.125 3.433 7.69.293.658.574 1.32.852 1.983.603 1.436.393 1.968-1.15 2.326-1.612.373-3.271.545-4.891.891-4.927 1.05-9.889 1.97-14.748 3.276-4.098 1.101-8.218 2.101-12.34 3.077-9.114 2.155-18.346 3.643-27.687 4.333-5.406.399-10.806.189-16.138-.829-2.628-.503-5.148-1.417-7.46-2.805-1.591-.956-2.748-2.409-3.579-3.986-1.256-2.377-2.93-4.445-4.432-6.638-1.334-1.944-2.026-4.119-2.499-6.389a30.957 30.957 0 0 0-.565-2.308c-.228-.781-.34-1.589-.124-2.352.795-2.833 1.168-5.747 1.807-8.606.171-.76.547-1.485.89-2.199.683-1.411 1.464-2.775 2.099-4.205.713-1.606 1.659-3.012 3.002-4.154 1.889-1.61 2.883-3.945 4.583-5.706.243-.251.441-.547.666-.831l.012.006Zm3.859-2.954c-.071-.32-.275-.343-.485-.278-.225.068-.379.264-.34.488.041.231.26.314.482.234a.493.493 0 0 0 .343-.444ZM399.242 51.475c.151-5.196.26-9.733 1.245-14.18.248-1.125.662-2.087 1.478-2.61 1.086-.699 1.012-1.616.719-2.685-.388-1.42-.399-1.565.798-2.255 1.298-.745 2.268-1.73 2.567-3.418.036-.198.169-.381.281-.553 1.206-1.89 1.798-4.09 2.446-6.268.121-.408.289-.799.419-1.204.302-.93.87-1.207 1.651-.799.869.453 1.747.767 2.702.959 1.42.287 2.091 1.778 1.724 3.445-1.117 5.092-2.395 10.15-2.853 15.405-.382 4.38-1.603 8.576-2.005 12.962-.556 6.063-.071 11.928 1.792 17.678.908 2.8 2.496 4.563 5.021 5.427 4.572 1.563 9.179 2.069 13.919 1.403 2.786-.39 5.483-1.151 8.18-1.92 6.931-1.972 12.384-6.546 16.589-12.924a164.166 164.166 0 0 0 8.919-15.275c1.83-3.563 2.886-7.502 4.235-11.298.479-1.344.532-3.022 1.904-3.803.183-.104.352-.299.195-.506-.784-1.048.077-1.882.26-2.788.184-.908.571-1.76.743-2.669.378-2.015 1.097-2.459 2.874-1.808 1.464.533 2.83 1.34 4.101 2.24 1.032.728 2.212 1.08 3.185 1.92.796.687 1.239 1.374.855 2.552-.263.805-.32 1.698-.592 2.5-1.797 5.303-3.427 10.674-5.095 16.03-1.511 4.85-4.16 9.032-6.671 13.263-2.481 4.182-5.471 7.89-8.46 11.595-.911 1.127-2.061 1.888-3.188 2.66-2.366 1.625-4.998 2.681-7.352 4.335-1.043.734-2.297.773-3.424 1.258-1.473.636-3.028 1-4.35 2.077a3.32 3.32 0 0 1-2.153.749c-1.768-.047-3.507.568-5.293.225-.346-.065-.754.095-1.1.248a3.555 3.555 0 0 1-1.677.317c-4.968-.293-9.797-1.358-14.439-3.46-.654-.295-1.266-.665-1.736-1.298-.198-.267-.456-.572-.734-.657-3.814-1.205-6.514-4.386-9.548-6.963-.713-.604-1.328-1.353-1.996-2.022-3.383-3.394-4.871-7.877-5.592-12.733-.284-1.909-.716-3.832-.541-5.15l-.003-.002ZM356.443 18.933c1.683.461 2.357 1.926 3.324 3.056.373.432.455 1.021.263 1.64-1.499 4.85-1.786 9.925-2.765 14.873-1.218 6.149-2.185 12.343-3.516 18.471-1.257 5.78-2.921 11.444-4.492 17.137-.097.358-.281.743.077.977.346.227.651-.054.935-.3 1.942-1.665 4.326-2.535 6.562-3.695 4.181-2.166 8.584-3.756 13.014-5.238 3.472-1.16 6.716-2.915 10.27-3.815 4.314-1.089 8.511-2.71 13.011-3.018.707-.047 1.396-.343 2.1-.474 1.756-.319 2.141-.127 2.865 1.471a943.43 943.43 0 0 1 3.975 8.878c.807 1.832.328 2.64-1.754 2.829a64.36 64.36 0 0 0-6.204.885c-4.903.923-9.655 2.382-14.327 4.078-5.415 1.967-10.85 3.894-16.093 6.303a60.484 60.484 0 0 0-11.627 6.998 444.605 444.605 0 0 1-5.853 4.418c-.946.702-1.809 1.43-2.052 2.67-.151.769-.615.929-1.259.526-.364-.227-.787-.438-1.024-.77-1.611-2.278-3.77-4.174-4.793-6.867-.127-.335-.207-.764-.459-.965-1.558-1.243-1.327-2.652-.854-4.395 1.564-5.758 2.442-11.68 3.968-17.456.435-1.651.53-3.374.985-5.057.698-2.578 1.81-4.996 2.522-7.567.826-2.98 1.441-6.01 2.301-8.981.521-1.794.884-3.634 1.337-5.448.154-.616.272-1.205.775-1.728.647-.67.899-1.613 1.079-2.54.154-.801.494-1.559 1.094-2.07 1.656-1.415 2.469-3.17 2.806-5.319.287-1.837 1.053-3.574 1.902-5.258.701-1.39 1.28-2.838 1.91-4.252l-.003.003Z"/><path fill="#000" d="M466.475 33.17c-.074-1.652.553-2.043 2.049-1.235.716.388 1.704.607 1.358 1.826-.314 1.104-1.083 1.838-1.89 1.734-.81-.103-1.464-1.104-1.517-2.326ZM255.809 35.98c-.352.217-.663-.02-.967-.109-.719-.21-.704-.817-.526-1.34.144-.43.402-1.021.907-1.007.71.021.698.737.775 1.255.059.402.044.829-.189 1.199v.002ZM531.396 21.261a.72.72 0 0 1-.671.63c-.598.048-1.156-.118-1.29-.804-.079-.418.219-.645.616-.704.505-.075 1.259.41 1.345.878ZM473.194 29.577c.751-.456 1.251-.5 1.487.266.05.16-.068.533-.154.547-.579.104-.839-.405-1.333-.813ZM306.876 23.49l1.277-1.672c.009 1.11-.393 1.547-1.277 1.672ZM578.521 14.639c-.145-.101-.331-.17-.331-.24 0-.24.183-.355.408-.37.216-.015.464.044.384.305-.044.142-.313.213-.461.305ZM403.331 57.92c-.408-.009-.65-.234-.712-.615-.006-.033.355-.184.541-.178.272.012.588.089.582.459-.002.225-.168.355-.411.334ZM255.005 44.104c-.113.139-.202.352-.352.41-.246.101-.343-.109-.317-.319.027-.204.157-.382.391-.355.088.01.162.151.278.264ZM154.699 93.623a279.985 279.985 0 0 0-26.671 2.465c-3.043.426-6.133.764-9.179.145-4.365-.885-8.15-2.648-10.424-6.877-1.703-3.172-3.436-6.28-4.128-9.875a14.034 14.034 0 0 1-.195-4.152c.426-4.075 1.056-8.025 3.061-11.792 1.517-2.85 3.454-5.208 5.58-7.517.751-.816 1.898-.982 2.555-2.151.591-1.056 1.65-1.885 2.28-3.084.561-1.065 1.836-1.695 3.131-1.686.728.006 1.307-.157 1.804-.592 1.709-1.494 3.691-2.225 5.944-2.175.491.012.449-.51.813-.577.745-.136 1.422-.995 2.191.263.438.713 2.266.346 2.949-.42 1.283-1.444 2.735-2.231 4.772-1.983 1.364.166 2.709-.444 4.105-.553 4.607-.37 9.217.178 13.825-.178 1.449-.112 2.726.391 3.409 1.894.453.998 1.088 1.915 1.541 2.915.863 1.903.088 3.122-2.02 3.297-1.195.097-2.318-.311-3.472-.489-5.178-.801-10.385-.384-15.581-.417-5.048-.032-9.877 1.092-14.629 2.67-3.312 1.097-5.896 3.184-8.008 5.912-2.389 3.09-4.335 6.442-5.893 10.02-1.899 4.359-2.159 8.948-1.804 13.6.115 1.504.866 2.025 2.354 1.954 6.508-.308 12.967-1.033 19.437-1.826 6.822-.835 13.703-1.258 20.585-1.637 6.174-.34 10.208 2.308 13.035 7.449 1.381 2.509 2.484 5.143 3.374 7.862.934 2.853.517 5.632-.535 8.381-.391 1.018-1.281 1.589-1.914 2.358-1.898 2.3-3.347 4.96-5.615 6.966-.911.805-1.526 1.995-2.969 2.03-.166.003-.408.204-.47.37-.491 1.296-1.618 1.654-2.78 2.078-1.201.437-2.537.713-2.449 2.63.051 1.086-1.259 1.575-2.191 1.936-3.551 1.37-6.778 3.358-10.098 5.163-.642.35-1.325.622-1.994.918-.331.148-.878.18-.978.417-.725 1.669-2.49 1.651-3.771 2.376-4.202 2.374-8.463 4.643-12.701 6.954-.647.353-1.295.693-2.043.758-.778.065-1.272-.201-1.807-.894-2.025-2.624-3.294-5.664-4.95-8.487-.612-1.044-.29-1.624.426-2.243a2.91 2.91 0 0 1 .955-.535c7.035-2.386 13.393-6.244 20.156-9.233 5.432-2.4 10.639-5.25 15.581-8.564 3.815-2.557 6.949-5.833 9.818-9.381 1.12-1.388 1.673-3.08 2.362-4.7.373-.872.21-1.31-.84-1.47-2.117-.322-4.231-.349-5.92-.293h-.014Z"/></g><defs><clipPath id="a"><path fill="#fff" d="M4 3h575v164H4z"/></clipPath></defs></svg>