<svg width="16" height="16" viewBox="0 0 16 16" fill="none" xmlns="http://www.w3.org/2000/svg">
<path d="M10.6911 9.4417C10.6848 10.3412 11.0161 10.8125 11.3077 11.2957C11.7166 11.9703 12.0606 12.6425 11.3664 13.3411C10.8861 13.8243 9.88989 13.853 9.32152 13.3459C8.87269 12.944 8.51195 12.4177 8.07362 11.9966C7.19694 11.1546 7.00189 11.1928 6.04971 11.9081C5.42681 12.3746 4.95911 13.0133 4.43058 13.5827C3.92094 14.1329 3.42597 14.1305 2.90374 13.6258C2.14661 12.8913 1.97882 12.2143 2.3899 11.5134C2.47589 11.3651 2.59963 11.2479 2.69191 11.1043C3.13235 10.4169 3.07432 9.81409 2.51783 9.29577C2.19275 8.99674 1.84879 8.72402 1.53419 8.41302C1.0602 7.94414 0.816913 7.39871 1.16297 6.6882C1.48596 6.02555 2.00609 5.7911 2.61641 5.92268C3.17639 6.04229 3.70701 6.34372 4.26699 6.45855C4.90667 6.59012 5.47504 6.51118 5.8232 5.67149C6.30768 4.50407 7.28503 3.63089 7.41086 2.23381C7.44442 1.86301 7.70449 1.60704 7.95407 1.38934C8.34627 1.04964 8.79299 0.877398 9.27118 1.09988C9.77873 1.33671 9.91715 1.8654 9.89408 2.4228C9.86053 3.19311 9.70532 3.96102 9.70952 4.72894C9.71791 6.08535 9.89408 6.25999 11.0665 6.63797C11.7754 6.86762 12.4906 6.99441 13.2225 7.02551C13.4826 7.03747 13.751 7.0303 13.9964 7.10924C14.5627 7.28866 15.1185 8.19294 14.978 8.74076C14.7934 9.45844 14.225 9.58045 13.7091 9.4728C12.715 9.26706 11.746 9.41777 10.6932 9.44648L10.6911 9.4417Z" fill="#FFBADB"/>
</svg>
