<svg xmlns="http://www.w3.org/2000/svg" width="24" height="20" fill="none"><path fill="#000" d="M16.614 12.983c-.011 1.383.557 2.108 1.057 2.851.701 1.038 1.29 2.072.1 3.146-.823.743-2.53.787-3.505.007-.77-.618-1.388-1.427-2.14-2.075-1.502-1.295-1.837-1.236-3.47-.136-1.067.718-1.869 1.7-2.775 2.576-.874.846-1.722.842-2.617.066-1.298-1.13-1.586-2.17-.881-3.249.147-.228.36-.408.518-.63.755-1.056.655-1.983-.299-2.78-.557-.46-1.147-.88-1.686-1.358-.813-.721-1.23-1.56-.637-2.653.554-1.019 1.446-1.38 2.492-1.177.96.184 1.87.647 2.83.824 1.096.202 2.07.08 2.668-1.21.83-1.796 2.506-3.139 2.721-5.287.058-.57.504-.964.932-1.3.672-.522 1.438-.787 2.258-.444.87.364 1.107 1.177 1.068 2.034-.058 1.185-.324 2.366-.317 3.547.014 2.086.317 2.355 2.326 2.936 1.216.353 2.442.548 3.696.596.446.018.907.007 1.327.129.971.276 1.924 1.666 1.683 2.509-.316 1.104-1.29 1.291-2.175 1.126-1.705-.317-3.366-.085-5.17-.04l-.004-.008Z"/></svg>