<svg xmlns="http://www.w3.org/2000/svg" width="309" height="12" fill="none"><path fill="#000" d="M217.595 7.455c-4.577.397-9.119.422-13.653.596-7.245.277-14.427 1.226-21.624 2.026-3.386.376-6.788.618-10.153 1.214-.836.148-1.678.208-2.486.558-.745.325-1.132.104-1.492-.624-.409-.826-.339-1.239.342-1.756 1.168-.889 2.352-1.762 3.639-2.726-.933-.413-1.723-.123-2.483-.105-4.445.108-8.893.212-13.335.423-5.723.268-11.431.8-17.127 1.466-4.607.539-9.195 1.197-13.735 2.18-1.425.31-2.91.329-4.225 1.151-.488.306-1.019-.16-1.385-.936-.309-.655-.18-1.157.439-1.469 1.699-.848 2.91-2.339 4.381-3.483.094-.072.122-.242.21-.432-1.147-.113-2.205.199-3.279.278-3.731.28-7.456.63-11.111 1.49-3.136.741-6.264 1.523-9.4 2.26-1.098.26-2.245.31-3.218 1.022-.5.366-.992.205-1.389-.262-.46-.539-.655-1.456-.411-1.91.222-.41.619-.473.988-.432 2.856.319 5.537-.586 8.24-1.267 4.604-1.16 9.223-2.165 13.976-2.462 1.834-.113 3.685-.192 5.507-.554.884-.177 1.772-.315 2.62-.634.632-.24 1.108-.1 1.446.508.348.63.162 1.087-.372 1.51a154.625 154.625 0 0 0-3.34 2.739c-.385.321-.827.599-1.236 1.273.86-.135 1.504-.224 2.142-.34 6.76-1.226 13.551-2.175 20.41-2.585 1.937-.117 3.859-.454 5.796-.564 4.106-.234 8.216-.404 12.328-.555 2.743-.1 5.489-.123 8.234-.186.626-.013 1.202-.199 1.761-.504 1.022-.561 1.504-.457 1.906.327.394.773.211 1.176-.878 1.781-1.217.675-2.282 1.57-3.383 2.418-.116.088-.223.183-.177.463.659.133 1.363.048 2.022-.091 1.584-.334 3.191-.41 4.79-.539 5.427-.444 10.803-1.377 16.233-1.775 3.301-.24 6.602-.457 9.909-.62 4.299-.212 8.613-.269 12.89-.845 1.653-.224 3.249-.672 4.823-1.195 1.041-.347 1.501-.3 1.791.36.308.696-.009 1.131-1.144 1.582-.976.387-1.919.844-2.807 1.418-.836.54-1.644 1.125-2.626 1.803.677.319 1.256.369 1.751.265 2.48-.52 4.988-.463 7.492-.514 2.557-.053 5.08-.501 7.63-.668 3.924-.259 7.85-.378 11.78-.533 4.777-.186 9.555-.381 14.332-.545 1.041-.035 2.084.072 3.124.05.937-.022 1.87.044 2.783-.397.704-.34 1.427-.094 1.656.624.266.832.778.735 1.333.703 2.362-.145 4.729-.252 7.084-.479 2.557-.246 5.11-.063 7.664-.12 4.067-.088 8.143-.025 12.179-.68 1.208-.196 2.416-.407 3.603-.606.125-.151.113-.287.018-.41-.296-.384-.665-.769-.351-1.298.299-.501.769-.69 1.346-.602.655.1 1.324.135 1.97.27 1.395.294 2.783.575 4.217.606 1.077.022 1.473.41 1.421 1.195-.052.8-.521 1.17-1.51 1.08-1.815-.16-3.609.102-5.342.53-4.552 1.132-9.177 1.356-13.82 1.438-5.351.091-10.705.015-16.044.504-2.026.186-4.049.397-6.071.608-.522.054-.958.227-1.349.678-1.061 1.226-2.565.807-3.008-.788-.314-1.135-.314-1.176-1.461-1.15-3.411.078-6.819.18-10.229.296-3.927.135-7.856.249-11.779.47-3.118.176-6.23.52-9.345.753-3.731.277-7.462.514-11.197.775-.707.05-1.412.101-2.111.271-.741.183-1.238-.126-1.473-.772-.241-.665-.073-1.23.521-1.642.934-.643 1.88-1.267 2.819-1.9l.013-.007ZM79.601 5.233c.314.324.604.23.879.205 3.673-.357 7.337-.782 10.989-1.343 3.511-.54 6.977-1.321 10.476-1.917 1.535-.261 3.06-.684 4.643-.488.376.047.754.066 1.129.126.476.079.796.375.815.873.021.536-.348.772-.812.842-.467.069-.946.182-1.406.141-2.297-.21-4.534.259-6.758.684C92.622 5.683 85.681 6.91 78.625 7.27c-.522.025-1.013.183-1.507.378-.775.306-1.358.035-1.65-.64-.306-.709-.12-1.194.682-1.61 1.154-.6 2.069-1.504 3.341-2.49-2.358.003-4.35.327-6.349.535-2.45.252-4.9.48-7.355.63-3.167.196-6.297.71-9.436 1.154-3.655.514-7.319.971-10.965 1.539-1.586.245-3.127.788-4.713 1.05-2.843.469-5.705.828-8.56 1.232-.794.113-1.578.195-2.307.633-.742.445-1.324.274-1.745-.33-.46-.666-.485-1.42-.006-2.009.726-.895 1.48-1.768 2.382-2.843-1.717.158-3.209.28-4.7.432-3.39.347-6.783.678-10.17 1.065-4.087.467-8.181.915-12.245 1.595-.519.089-1 .23-1.468.502-.448.261-.927.157-1.314-.205C.085 7.458-.077 6.88.033 6.282c.08-.428.446-.624.87-.583 3.249.303 6.385-.652 9.58-.94 4.758-.428 9.511-.945 14.265-1.42 2.404-.24 4.796-.546 7.163-1.05.278-.06.558-.155.833-.14.528.03 1.077.118 1.232.773.144.602.095 1.154-.463 1.564-.849.624-1.712 1.235-2.313 2.15-.104.157-.207.315-.39.598 1.473.035 2.782-.384 4.118-.46 4.369-.249 8.542-1.712 12.875-2.181 2.776-.303 5.567-.527 8.3-1.09 4.845-1 9.79-.987 14.666-1.659 2.718-.375 5.467-.504 8.2-.766 1.126-.107 2.249-.164 3.277-.82.784-.497 1.434-.245 1.766.492.305.678.12 1.163-.726 1.627-1.382.756-2.55 1.774-3.691 2.862l.006-.006Z"/></svg>