<svg xmlns="http://www.w3.org/2000/svg" width="12" height="309" fill="none"><path fill="#000" d="M7.455 91.391c.397 4.576.422 9.119.596 13.652.277 7.246 1.226 14.428 2.026 21.624.376 3.387.618 6.788 1.214 10.154.148.835.208 1.677.558 2.486.325.744.104 1.132-.624 1.492-.826.409-1.239.338-1.756-.342-.889-1.168-1.762-2.352-2.727-3.64-.412.934-.122 1.724-.104 2.484.108 4.445.212 8.893.423 13.335.268 5.723.8 11.431 1.466 17.127.539 4.607 1.197 9.195 2.18 13.735.31 1.424.329 2.91 1.151 4.225.306.488-.16 1.019-.936 1.385-.655.308-1.157.18-1.469-.439-.848-1.699-2.339-2.911-3.483-4.381-.072-.095-.242-.122-.432-.211-.113 1.147.199 2.206.278 3.28.28 3.731.63 7.456 1.49 11.111.741 3.136 1.523 6.263 2.26 9.399.26 1.099.31 2.246 1.022 3.219.366.5.205.992-.262 1.388-.539.461-1.456.656-1.91.412-.41-.223-.473-.619-.432-.988.319-2.856-.586-5.538-1.267-8.241-1.16-4.603-2.165-9.222-2.462-13.975-.113-1.834-.192-3.686-.554-5.507-.177-.885-.315-1.773-.634-2.621-.24-.631-.1-1.107.508-1.446.63-.348 1.087-.161 1.51.372a154.68 154.68 0 0 0 2.739 3.341c.321.384.599.827 1.273 1.236-.135-.861-.224-1.504-.34-2.142-1.226-6.761-2.175-13.552-2.585-20.41-.117-1.937-.454-3.859-.564-5.796a618.063 618.063 0 0 1-.555-12.329c-.1-2.742-.123-5.488-.186-8.234-.013-.625-.199-1.202-.504-1.76-.561-1.022-.457-1.504.327-1.907.773-.393 1.176-.21 1.781.879.675 1.217 1.57 2.282 2.418 3.383.088.116.183.223.463.177.133-.659.048-1.364-.091-2.023-.334-1.583-.41-3.191-.539-4.789-.444-5.428-1.377-10.803-1.775-16.234-.24-3.301-.457-6.602-.62-9.909-.212-4.298-.269-8.612-.845-12.89-.224-1.653-.672-3.248-1.195-4.822-.347-1.04-.3-1.502.36-1.791.696-.308 1.13.009 1.582 1.144a16.05 16.05 0 0 0 1.418 2.806c.54.836 1.125 1.645 1.803 2.627.318-.677.369-1.257.265-1.751-.52-2.48-.463-4.988-.514-7.493-.053-2.556-.501-5.08-.668-7.63-.259-3.923-.378-7.85-.533-11.779-.186-4.777-.381-9.555-.545-14.333-.035-1.04.072-2.083.05-3.123-.022-.937.044-1.87-.397-2.783-.34-.705-.094-1.428.624-1.657.832-.265.735-.777.703-1.333-.145-2.361-.252-4.728-.479-7.084-.246-2.556-.063-5.11-.12-7.663-.088-4.067-.025-8.143-.68-12.179-.196-1.208-.407-2.416-.606-3.603-.151-.125-.287-.113-.41-.018-.384.296-.769.665-1.298.35-.501-.298-.69-.768-.602-1.345.1-.656.135-1.324.27-1.97.294-1.395.574-2.783.606-4.217C5.138.35 5.526-.047 6.311.004c.8.052 1.17.522 1.08 1.51-.16 1.816.102 3.61.53 5.343 1.132 4.551 1.356 9.176 1.438 13.82.091 5.35.015 10.705.504 16.044.186 2.026.397 4.048.608 6.07.054.523.227.959.678 1.35 1.226 1.061.807 2.565-.788 3.007-1.135.315-1.176.315-1.15 1.462.078 3.41.18 6.818.296 10.23.135 3.925.249 7.855.47 11.778.176 3.118.52 6.23.753 9.345.277 3.73.514 7.462.775 11.196.05.708.101 1.413.271 2.111.183.742-.126 1.239-.772 1.474-.665.24-1.23.073-1.642-.522-.643-.933-1.267-1.88-1.9-2.819l-.007-.012ZM5.233 229.385c.324-.315.23-.604.205-.879-.357-3.673-.782-7.337-1.343-10.989-.54-3.511-1.321-6.977-1.917-10.476-.261-1.535-.684-3.06-.488-4.644.047-.375.066-.753.126-1.128.079-.476.375-.797.873-.815.536-.021.772.348.842.812.069.466.182.945.141 1.406-.21 2.297.259 4.533.684 6.757 1.327 6.935 2.554 13.875 2.913 20.932.025.522.183 1.013.378 1.507.306.775.035 1.358-.64 1.651-.709.305-1.194.119-1.61-.684-.6-1.153-1.504-2.068-2.49-3.34.003 2.358.327 4.35.535 6.348.252 2.45.48 4.9.63 7.356.196 3.166.71 6.297 1.154 9.436.514 3.655.971 7.319 1.539 10.964.245 1.587.788 3.127 1.05 4.714.469 2.843.828 5.705 1.232 8.56.113.794.195 1.578.633 2.307.445.741.274 1.324-.33 1.745-.666.461-1.42.485-2.009.006-.895-.726-1.768-1.48-2.843-2.383.158 1.718.28 3.21.432 4.702.347 3.389.678 6.782 1.065 10.168.467 4.088.915 8.182 1.595 12.246.089.518.23 1 .502 1.467.261.449.157.928-.205 1.315-.429.455-1.006.616-1.605.507-.428-.08-.624-.446-.583-.87.303-3.249-.652-6.385-.94-9.579-.428-4.76-.945-9.513-1.42-14.266-.24-2.404-.546-4.796-1.05-7.163-.06-.278-.155-.559-.14-.833.03-.528.118-1.077.773-1.233.602-.143 1.154-.094 1.564.464.624.848 1.235 1.712 2.15 2.313.157.103.315.207.598.39.035-1.473-.384-2.782-.46-4.118-.249-4.369-1.712-8.543-2.181-12.875-.303-2.776-.527-5.568-1.09-8.301-1-4.845-.987-9.79-1.659-14.665-.375-2.718-.504-5.467-.766-8.201-.107-1.126-.164-2.248-.82-3.276-.497-.784-.245-1.434.492-1.767.678-.305 1.163-.119 1.627.726.756 1.382 1.774 2.551 2.862 3.692l-.006-.006Z"/></svg>